{"title":"Bonded by Blood 2010 DVDrip English Klam","uid":6505634,"size":1165099371,"categoryP":"video","categoryS":"movies","magnet":"?xt=urn:btih:60f8e27dd185e2f3c0931a7bc38f1045eccda021&amp;dn=Bonded+by+Blood+2010+DVDrip+English+Klam&amp;tr=udp%3A%2F%2Ftracker.openbittorrent.com%3A80&amp;tr=udp%3A%2F%2Fopen.demonii.com%3A1337&amp;tr=udp%3A%2F%2Ftracker.coppersurfer.tk%3A6969&amp;tr=udp%3A%2F%2Fexodus.desync.com%3A6969","seeders":1,"leechers":0,"uploader":"Klambake","files":-1,"time":1309422933,"description":"With: Tamer Hassan, Vincent Regan and Dave Legeno\n\nTony Tucker, Patrick Tate en Craig Rolfe zijn drie dealers en criminelen die zich in de jaren tachtig en begin jaren negentig in de Londense misdaadwereld steeds verder opwerken. Door hun extreem gewelddadige optreden boezemen ze tot over heel Zuid-Engeland angst in bij concurrenten en wordt hun reputatie almaar groter. Dit laat zo zijn sporen na. Ze maken veel vijanden en de verleidingen tot drugs zorgen voor barstjes in hun reputatie. Het is de vraag tot hoe lang ze kunnen standhouden.\n\nIn 1995, drug suppliers and career criminals Tony Tucker, Patrick Tate and Craig Rolfe were blasted to death by a shot gun whilst waiting in a Range Rover in Rettendon...\n\n------------------ Dutch Friends ------------------\nYou can find my Friends at: http://www.Film-Test.nl \n------ They got my dutchs subs ---- and more ------\n\nGeneral:\n\nComplete name                    : Bonded by Blood\\Bonded by Blood.avi\nFormat                           : AVI\nFormat/Info                      : Audio Video Interleave\nFile size                        : 1.08 GiB\nDuration                         : 1h 32mn\nOverall bit rate                 : 1 679 Kbps\n\nVideo:\n\nFormat                           : MPEG-4 Visual\nFormat profile                   : Simple@L3\nFormat settings, BVOP            : No\nFormat settings, QPel            : No\nFormat settings, GMC             : No warppoints\nFormat settings, Matrix          : Default (H.263)\nCodec ID                         : XVID\nCodec ID/Hint                    : XviD\nDuration                         : 1h 32mn\nBit rate                         : 1 220 Kbps\nWidth                            : 720 pixels\nHeight                           : 304 pixels\nDisplay aspect ratio             : 2.35:1\nFrame rate                       : 25.000 fps\nColor space                      : YUV\nChroma subsampling               : 4:2:0\nBit depth                        : 8 bits\nScan type                        : Progressive\nBits/(Pixel*Frame)               : 0.223\nStream size                      : 805 MiB (73%)\nWriting library                  : XviD 1.1.2 (UTC 2006-11-01)\n\nAudio:\n\nFormat                           : AC-3\nFormat/Info                      : Audio Coding 3\nMode extension                   : CM (complete main)\nCodec ID                         : 2000\nDuration                         : 1h 32mn\nBit rate mode                    : Constant\nBit rate                         : 448 Kbps\nChannel(s)                       : 6 channels\nChannel positions                : Front: L C R, Side: L R, LFE\nSampling rate                    : 48.0 KHz\nBit depth                        : 16 bits\nStream size                      : 296 MiB (27%)\nAlignment                        : Aligned on interleaves\nInterleave, duration             : 32 ms (0.80 video frame)\nInterleave, preload duration     : 896 ms\n\n\n","torrent":{"xt":"urn:btih:60f8e27dd185e2f3c0931a7bc38f1045eccda021","amp;dn":"Bonded+by+Blood+2010+DVDrip+English+Klam","amp;tr":["udp%3A%2F%2Ftracker.openbittorrent.com%3A80","udp%3A%2F%2Fopen.demonii.com%3A1337","udp%3A%2F%2Ftracker.coppersurfer.tk%3A6969","udp%3A%2F%2Fexodus.desync.com%3A6969"],"infoHash":"60f8e27dd185e2f3c0931a7bc38f1045eccda021","infoHashBuffer":{"type":"Buffer","data":[96,248,226,125,209,133,226,243,192,147,26,123,195,143,16,69,236,205,160,33]},"announce":[],"urlList":[]}}